<?xml version="1.0" encoding="utf-8"?>
<!-- Generator: Adobe Illustrator 22.0.1, SVG Export Plug-In . SVG Version: 6.00 Build 0)  -->
<svg version="1.1" id="Layer_1" xmlns="http://www.w3.org/2000/svg" xmlns:xlink="http://www.w3.org/1999/xlink" x="0px" y="0px"
	 viewBox="0 0 300 95" style="enable-background:new 0 0 300 95;" xml:space="preserve">
<style type="text/css">
	.st0{fill:#D9D9D9;}
	.st1{fill:#E3E3E3;}
	.st2{enable-background:new    ;}
</style>
<path class="st0" d="M65.2,21.9l4.2,46.8L88.1,74l18.8-5.3l4.2-46.8H65.2z M102.4,33l-0.3,3l-0.1,1.2H88.1l0,0h-8l0.5,5.9h7.6h11.7
	h1.6l-0.2,1.5L100,59.7l-0.1,1L88.2,64v0h-0.1l-11.8-3.3l-0.7-9.1h2.6h3.1l0.4,4.6l6.4,1.7l0.1,0l6.3-1.7l0.7-7.4h-7H75.3L73.8,33
	l-0.1-1.5h14.3h0.1h14.3L102.4,33z"/>
<polygon class="st1" points="95.2,48.9 88.2,48.9 88.2,48.9 88.2,58 94.5,56.3 "/>
<polygon class="st1" points="88.2,25.7 88.2,31.5 102.5,31.5 102.4,33 102.1,35.9 102,37.2 88.2,37.2 88.2,43.1 99.9,43.1 
	101.5,43.1 101.3,44.6 100,59.7 99.9,60.8 88.2,64 88.2,69.9 103.3,65.7 106.9,25.7 "/>
<g class="st2">
	<path class="st0" d="M120.4,39.1v2.6h0.8v1.9h-3.8l0-1.9h0.8v-7.2h-0.8v-2h3.7v2h-0.8V37h2v-2.5h-0.8v-2h3.7v2h-0.8V39v2.7h0.8v1.9
		h-3.7v-1.9h0.8v-2.6H120.4z"/>
	<path class="st0" d="M131.3,43.6h-3.7v-1.9h0.7v-7.2h-0.7v1.3h-1.8v-3.2h7.2v3.2h-1.8v-1.3h-0.7v7.2h0.8L131.3,43.6L131.3,43.6z"/>
	<path class="st0" d="M140.6,32.6h3.8v2h-0.7v7.1h0.7v1.9H141v-1.9h0.6v-4.1l-1.7,6h-1.5l-1.7-6v4.1h0.7v1.9h-3.8v-1.9h0.8v-7.1
		h-0.8v-2h4l1.5,7.5L140.6,32.6z"/>
	<path class="st0" d="M148,41.7h2.1v-1.5h2.1v3.4h-7.1v-1.9h0.8v-7.2h-0.8v-2h3.7v2H148L148,41.7L148,41.7z"/>
	<path class="st0" d="M153.8,39.2l-1.1-1.4v-5.3h6.7v3h-2.2v-0.9h-2.3V37h3.4l1.2,1.1v4.5l-1,1h-4.6l-1.2-1.2v-2h2v1.1h2.5v-2.5
		H153.8L153.8,39.2z"/>
	<path class="st0" d="M170.8,43.6h-6.4v-1.9h0.8l0-7.2h-0.8v-2h6.4l1.1,1v3.4l-0.8,0.9l0.8,0.8v3.8L170.8,43.6z M169.6,34.6h-2.2V37
		h2.2V34.6z M169.6,39h-2.2v2.7h2.2V39z"/>
	<path class="st0" d="M175.5,41.7h2.1v-1.5h2.1v3.4h-7.1v-1.9h0.8v-7.2h-0.8v-2h3.7v2h-0.8V41.7z"/>
	<path class="st0" d="M183.1,43.6h-2.9v-1.9h0.4l1.7-7.2h-0.5l0-2h3.3v2h-0.4l1.8,7.2h0.4v1.9H184v-1.9h0.5l-0.1-0.6h-1.5l-0.2,0.6
		h0.5L183.1,43.6L183.1,43.6z M184,39.6l-0.4-1.7l-0.4,1.7H184z"/>
	<path class="st0" d="M191.1,43.6h-3.6v-2h0.8v-7.1h-0.8v-1.9h3.2l1.6,4.7v-2.8h-0.8v-1.9h3.8v1.9h-0.8v7.1h0.8v2h-3l-1.8-5.7v3.7
		h0.7L191.1,43.6L191.1,43.6z"/>
	<path class="st0" d="M199.8,34.5v-2h3.5v2h-0.6l-2.4,3.1l2.3,4h0.6v1.9h-3.5v-1.9h0.6l-1.2-2.3l-0.5,0.8v1.6h0.8v1.9h-3.7l0-1.9
		h0.8v-7.2h-0.8v-2h3.7v2h-0.8v2.2l1.7-2.2C200.4,34.5,199.8,34.5,199.8,34.5z"/>
</g>
<g class="st2">
	<path class="st0" d="M121.6,60.1h-2l-1.3-9.1h-0.7v-2h3.4v2h-0.5l0.5,5.2l1.1-4.4h1.4l1.2,4.3l0.6-5.1h-0.7v-2h3.3v2h-0.6l-1.3,9.1
		h-2l-1.2-5L121.6,60.1z"/>
	<path class="st0" d="M129.5,60.1l-0.9-0.9v-9.1l1.1-1.1h4.5l1,1v9l-1,1H129.5z M133.1,51h-2.3v7.2h2.3V51z"/>
	<path class="st0" d="M139.6,60.1h-3.7v-1.9h0.8V51h-0.8v-2h6.1l1,1.2v4.1l-1.2,1.1h-0.7l1.5,2.7h0.4v1.9H140v-1.9h0.5l-1.4-2.6H139
		v2.6h0.7L139.6,60.1L139.6,60.1z M140.7,51H139v2.5h1.8V51z"/>
	<path class="st0" d="M149.7,60.1h-6.1l0-1.9h0.8V51h-0.8v-2h6.1l1.2,1.1V59L149.7,60.1z M148.6,51h-2.1v7.2h2.1V51z"/>
	<path class="st0" d="M155.7,60.1h-3.8v-1.9h0.8V51h-0.8v-2h5.7l1.1,1.1v4.2l-1.1,1.1h-2.6l0,2.7h0.8L155.7,60.1z M156.3,51h-1.5
		v2.4h1.5C156.3,53.4,156.3,51,156.3,51z"/>
	<path class="st0" d="M162.9,60.1h-3.7v-1.9h0.8V51h-0.8v-2h6.1l1,1.2v4.1l-1.2,1.1h-0.7l1.5,2.7h0.4v1.9h-3.1v-1.9h0.5l-1.4-2.6
		h-0.1v2.6h0.7L162.9,60.1C162.9,60.1,162.9,60.1,162.9,60.1z M164,51h-1.8v2.5h1.8V51L164,51z"/>
	<path class="st0" d="M173.9,60.1h-7.2v-1.9h0.8V51h-0.8v-2h7.3v3.2h-2.1V51h-2.2v2.6h1.7v1.9h-1.7v2.7h2.2v-1.5h2.1V60.1z"/>
	<path class="st0" d="M174.4,56.8h2.2v1.3h2.5v-2.7h-3.6l-1-1V50l1-1h4.7l1.1,1.1v2.1h-2.2V51h-2.5v2.5h3.6l1,1V59l-1.1,1h-4.6
		l-1.2-1.2L174.4,56.8L174.4,56.8z"/>
	<path class="st0" d="M181.8,56.8h2.2v1.3h2.5v-2.7h-3.6l-1-1V50l1-1h4.7l1.1,1.1v2.1h-2.2V51h-2.5v2.5h3.6l1,1V59l-1.1,1H183
		l-1.2-1.2L181.8,56.8L181.8,56.8z"/>
	<path class="st0" d="M198.9,60.1h-3.7v-1.9h0.7V51h-0.7v1.3h-1.8v-3.2h7.2v3.2h-1.8V51h-0.7v7.2h0.8L198.9,60.1L198.9,60.1z"/>
	<path class="st0" d="M204.2,55.5v2.6h0.8v1.9h-3.8l0-1.9h0.8V51h-0.8v-2h3.7v2h-0.8v2.5h2V51h-0.8v-2h3.7v2h-0.8v4.5v2.7h0.8v1.9
		h-3.7v-1.9h0.8v-2.6L204.2,55.5L204.2,55.5z"/>
	<path class="st0" d="M216.9,60.1h-7.2v-1.9h0.8V51h-0.8v-2h7.3v3.2h-2.1V51h-2.2v2.6h1.7v1.9h-1.7v2.7h2.2v-1.5h2.1V60.1
		L216.9,60.1z"/>
	<path class="st0" d="M224.4,49h3.8v2h-0.7v7.1h0.7v1.9h-3.5v-1.9h0.6v-4.1l-1.7,6h-1.5l-1.7-6v4.1h0.7v1.9h-3.8v-1.9h0.8V51h-0.8
		v-2h4l1.5,7.5L224.4,49z"/>
	<path class="st0" d="M236,60.1h-7.2v-1.9h0.8V51h-0.8v-2h7.3v3.2h-2.1V51h-2.2v2.6h1.7v1.9h-1.7v2.7h2.2v-1.5h2.1L236,60.1
		L236,60.1z"/>
</g>
</svg>
